# xmcd
#
# Track frame offsets: 
#        150
#        21967
#        39352
#        59051
#        71757
#
# Disc length: 1220 seconds
#
# Revision: 1
# Processed by: cddbd v1.5.2PL0 Copyright (c) Steve Scherf et al.
# Submitted via: ExactAudioCopyFreeDBPlugin 1.0
#
DISCID=4404c205
DTITLE=Trey Songz - Inevitable
DYEAR=2011
DGENRE=R&B
TTITLE0=Top Of The World
TTITLE1=What I Be On (feat. Fabolous)
TTITLE2=I Do
TTITLE3=Outside (Pt. 1)
TTITLE4=Sex Ain't Better Than Love
EXTD=
EXTT0=
EXTT1=
EXTT2=
EXTT3=
EXTT4=
PLAYORDER=
